<?xml version="1.0" encoding="utf-8"?>
<!-- Generator: Adobe Illustrator 24.0.0, SVG Export Plug-In . SVG Version: 6.00 Build 0)  -->
<svg version="1.1" id="Layer_1" xmlns="http://www.w3.org/2000/svg" xmlns:xlink="http://www.w3.org/1999/xlink" x="0px" y="0px"
	 viewBox="0 0 131.8 131.8" style="enable-background:new 0 0 131.8 131.8;" xml:space="preserve">
<style type="text/css">
	.st0{fill:#C92347;}
	.st1{fill:#FFFFFF;}
</style>
<g>
	<circle class="st0" cx="65.9" cy="65.9" r="65.9"/>
</g>
<g>
	<path class="st1" d="M65.6,95c2.1,0,4,0.8,5.5,2.3c1.5,1.5,2.3,3.4,2.3,5.5c0,2.1-0.8,4-2.3,5.5s-3.3,2.3-5.5,2.3
		c-2.1,0-4-0.8-5.5-2.3c-1.5-1.5-2.3-3.3-2.3-5.5c0-2.2,0.8-4,2.3-5.5C61.6,95.7,63.4,95,65.6,95z M66.3,87.1h-1.2l-6-47.7
		c-0.5-3.9-0.8-6.9-0.8-9.1c0-2.8,0.7-5,2.1-6.6c1.4-1.6,3.3-2.4,5.8-2.4c2.3,0,4.2,0.8,5.6,2.3c1.4,1.5,2.1,3.6,2.1,6.3
		c0,1.9-0.3,4.6-0.8,8.1L66.3,87.1z"/>
</g>
</svg>
